# xmcd
#
# Track frame offsets:
#  150
#  1474
#  13580
#  25832
#  42101
#  62450
#  81327
#  94718
#  112412
#  126769
#  151989
#  199853
#  214335
#  239746
#  259011
#  275240
#  289644
#
# Disc length: 4112 seconds
#
# Revision: 0
# Processed by: cddbd v1.5.1PL0 Copyright (c) Steve Scherf et al.
# Submitted via: Collectorz.com Music Collector 6.9
#
DISCID=f6100e11
DTITLE=steve earle - Live At Ot Pricesmusic Hall, Soguel, Ca On July 24, 1986
DYEAR=1986
DGENRE=
TTITLE0=Intro
TTITLE1=Guitar Town
TTITLE2=Sweet Little 66
TTITLE3=Goodbye Is All We Got Left
TTITLE4=Hillbilly Highway
TTITLE5=Good Ol Boy
TTITLE6=My Old Friend The Blues
TTITLE7=Someday
TTITLE8=Think It Over
TTITLE9=Little Rock N Rollller
TTITLE10=State Trooper
TTITLE11=Angry Young Man
TTITLE12=Fearless Heart
TTITLE13=Baby I Love You Too Much
TTITLE14=Down The Road
TTITLE15=San Antonio Girl
TTITLE16=The Devil's Right Hand
EXTD=
EXTT0=
EXTT1=
EXTT2=
EXTT3=
EXTT4=
EXTT5=
EXTT6=
EXTT7=
EXTT8=
EXTT9=
EXTT10=
EXTT11=
EXTT12=
EXTT13=
EXTT14=
EXTT15=
EXTT16=
PLAYORDER=
